<svg xmlns="http://www.w3.org/2000/svg" viewBox="0 0 920 320" font-family="Segoe UI, Microsoft YaHei, sans-serif">
  <rect width="920" height="320" fill="#f8f9fa"/>
  <text x="460" y="28" text-anchor="middle" font-size="16" font-weight="600" fill="#212529">	ÍÒr{U„–u:	</text>
  <!-- Company admin -->
  <rect x="20" y="48" width="280" height="250" rx="8" fill="#fff" stroke="#6c757d"/>
  <rect x="20" y="48" width="280" height="36" rx="8" fill="#0d6efd"/>
  <text x="160" y="71" text-anchor="middle" fill="#fff" font-size="13" font-weight="600">lø¡X</text>
  <text x="36" y="104" font-size="12" fill="#495057">–uløyî;È</text>
  <rect x="36" y="118" width="248" height="52" rx="4" fill="#e7f1ff" stroke="#0d6efd"/>
  <text x="48" y="140" font-size="11" fill="#0d6efd">‡cåw</text>
  <text x="48" y="158" font-size="10" fill="#495057">[ ? ] [ ‡c¡8 ]</text>
  <rect x="36" y="182" width="248" height="96" rx="4" fill="#f1f3f5" stroke="#dee2e6"/>
  <text x="48" y="204" font-size="10" fill="#868e96">yî{° / lø;Èh</text>
  <text x="48" y="224" font-size="10" fill="#868e96">,KŒ‰Ê	</text>
  <text x="36" y="268" font-size="10" fill="#dc3545"> ïÛeû¡¡</text>
  <!-- Project admin -->
  <rect x="320" y="48" width="280" height="250" rx="8" fill="#fff" stroke="#6c757d"/>
  <rect x="320" y="48" width="280" height="36" rx="8" fill="#198754"/>
  <text x="460" y="71" text-anchor="middle" fill="#fff" font-size="13" font-weight="600">yî¡X</text>
  <text x="336" y="104" font-size="12" fill="#495057">–uû¡¡</text>
  <rect x="336" y="118" width="248" height="52" rx="4" fill="#e7f1ff" stroke="#0d6efd"/>
  <text x="348" y="140" font-size="11" fill="#0d6efd">‡cåw</text>
  <text x="348" y="158" font-size="10" fill="#495057">[ ? ] [ ‡c¡8 ]</text>
  <rect x="336" y="182" width="248" height="52" rx="4" fill="#d1e7dd" stroke="#198754"/>
  <text x="348" y="204" font-size="11" fill="#198754">û¡Ue: + òÝXû¡h</text>
  <text x="348" y="222" font-size="10" fill="#495057">U¡ / yÏ¡8 / ‘ / [	</text>
  <text x="336" y="268" font-size="10" fill="#198754"> yîû¡M</text>
  <!-- Regular user -->
  <rect x="620" y="48" width="280" height="250" rx="8" fill="#fff" stroke="#6c757d"/>
  <rect x="620" y="48" width="280" height="36" rx="8" fill="#fd7e14"/>
  <text x="760" y="71" text-anchor="middle" fill="#fff" font-size="13" font-weight="600">n(7</text>
  <text x="636" y="104" font-size="12" fill="#495057">–u„û¡</text>
  <rect x="636" y="118" width="248" height="36" rx="4" fill="#fff3cd" stroke="#ffc107"/>
  <text x="648" y="140" font-size="10" fill="#664d03">vè[ ? ]K¨!	</text>
  <rect x="636" y="164" width="248" height="96" rx="4" fill="#ffe8cc" stroke="#fd7e14"/>
  <text x="648" y="186" font-size="11" fill="#fd7e14">„û¡h</text>
  <text x="648" y="206" font-size="10" fill="#495057">Í\? / U¡ / Œ¶</text>
  <text x="648" y="226" font-size="10" fill="#495057">Å>Ùêñ„û¡</text>
  <text x="636" y="268" font-size="10" fill="#dc3545"> ïMû¡ÙÖº</text>
</svg>
